<svg width="89" height="84" viewBox="0 0 89 84" fill="none" xmlns="http://www.w3.org/2000/svg">
<rect width="89" height="84" fill="#FF0000"/>
<path d="M7.152 77V9.8H22.512L28.08 44.36L33.552 9.8H49.2V77.096H36.72V44.648L31.248 77H24.816L19.344 44.936V77H7.152ZM62.3618 9.704C65.4338 9.704 68.0898 10.28 70.3298 11.432C72.5698 12.584 74.4898 14.12 76.0898 16.04C77.6898 17.96 79.0018 20.2 80.0258 22.76C81.0498 25.256 81.8498 27.848 82.4258 30.536C83.0018 33.224 83.3858 35.944 83.5778 38.696C83.8338 41.384 83.9618 43.88 83.9618 46.184C83.9618 51.304 83.4178 55.624 82.3298 59.144C81.3058 62.664 79.9618 65.544 78.2978 67.784C76.6978 70.024 75.0018 71.784 73.2098 73.064C70.0098 75.304 66.3938 76.584 62.3618 76.904H50.5538L50.7458 9.704H62.3618ZM62.5538 66.728C62.5538 66.728 62.7778 66.696 63.2258 66.632C63.6738 66.568 64.2498 66.344 64.9538 65.96C65.7218 65.512 66.5218 64.84 67.3538 63.944C68.2498 63.048 69.0498 61.768 69.7538 60.104C70.5218 58.44 71.1298 56.36 71.5778 53.864C72.0898 51.304 72.3458 48.168 72.3458 44.456C72.3458 43.496 72.3138 42.248 72.2498 40.712C72.1858 39.176 72.0258 37.544 71.7698 35.816C71.5778 34.088 71.2578 32.36 70.8098 30.632C70.3618 28.904 69.7538 27.336 68.9858 25.928C68.2818 24.52 67.3858 23.4 66.2978 22.568C65.2098 21.672 63.8978 21.224 62.3618 21.224L62.5538 66.728Z" fill="white"/>
</svg>
